<svg xmlns="http://www.w3.org/2000/svg"><path fill="#ede576" d="M337.3 92.49c-19.58 0-35.445 15.88-35.445 35.455 0 30.388-15.187 45.576-45.583 45.576-30.379 0-45.587-15.191-45.587-45.576 0-19.576-15.865-35.455-35.444-35.455s-35.445 15.88-35.445 35.455c0 19.578 15.866 35.458 35.445 35.458 30.395 0 45.586 15.19 45.586 45.587 0 19.578 15.866 35.444 35.448 35.444 19.576 0 35.465-15.866 35.465-35.444 0-30.396 15.188-45.587 45.563-45.587 19.6 0 35.465-15.88 35.465-35.458 0-19.576-15.869-35.455-35.469-35.455z"/><path fill="#33b5cc" d="M417.377 173.464c-19.579 0-35.445 15.879-35.445 35.454 0 30.39-15.187 45.577-45.583 45.577-30.378 0-45.587-15.191-45.587-45.577 0-19.575-15.865-35.454-35.444-35.454s-35.445 15.879-35.445 35.454c0 19.58 15.866 35.459 35.445 35.459 30.396 0 45.587 15.19 45.587 45.587 0 19.579 15.865 35.444 35.448 35.444 19.575 0 35.465-15.865 35.465-35.444 0-30.396 15.187-45.587 45.562-45.587 19.6 0 35.466-15.88 35.466-35.459 0-19.575-15.87-35.454-35.47-35.454z"/><path fill="#ec4c4c" d="M211.098 289.102c0-19.579-15.879-35.445-35.454-35.445-30.39 0-45.577-15.187-45.577-45.583 0-30.378 15.191-45.587 45.577-45.587 19.575 0 35.454-15.865 35.454-35.444s-15.879-35.445-35.454-35.445c-19.58 0-35.459 15.866-35.459 35.445 0 30.396-15.19 45.587-45.587 45.587-19.579 0-35.444 15.865-35.444 35.448 0 19.575 15.865 35.465 35.444 35.465 30.396 0 45.587 15.187 45.587 45.562 0 19.6 15.88 35.466 35.459 35.466 19.575 0 35.454-15.87 35.454-35.47z"/><path fill="#3a3a3a" d="M160.485 419.53h-30.714l14.447-67.957h28.788q6.636 0 11.615 1.34 4.973 1.336 8.24 4.44 3.262 3.103 4.918 8.133 1.661 5.03 1.661 12.307 0 7.812-1.982 15.304-1.978 7.491-6.58 13.377-4.601 5.886-12.042 9.469-7.435 3.587-18.35 3.587Zm-5.993-7.49h4.602q3.531 0 6.263-2.941 2.726-2.946 4.704-7.492 1.982-4.55 3.323-10.06 1.335-5.514 2.135-10.65.805-5.138 1.177-9.204.377-4.067.377-5.78 0-3.317-1.34-5.187-1.335-1.876-4.653-1.876h-5.137l-11.451 53.19Zm55.365-25.043 2.033-9.525q5.458-2.676 11.181-3.904 5.728-1.233 12.791-1.233 6.85 0 11.345 1.07 4.494 1.07 7.17 3.104 2.675 2.033 3.746 4.816 1.07 2.782 1.07 6.314 0 2.033-.27 4.387-.265 2.355-.586 3.96l-5.03 23.544h-17.23l-1.927-6.849h-.642q-3.425 3.746-7.975 5.723-4.546 1.983-9.041 1.983-2.569 0-5.03-.75-2.461-.749-4.388-2.298-1.926-1.554-3.103-3.96-1.178-2.41-1.178-5.835 0-5.565 3.048-8.826 3.053-3.267 8.026-4.923 4.98-1.662 11.237-2.09 6.264-.428 12.578-.428.214-1.07.535-3.047.321-1.983.321-3.48 0-1.927-1.02-3.583-1.013-1.662-4.224-1.662-3.746 0-5.514 2.197-1.763 2.191-2.298 5.295h-15.625Zm24.935 17.55 1.713-8.24h-1.927q-3.103 0-5.3.805-2.191.8-3.531 2.085-1.336 1.284-1.978 2.89-.642 1.605-.642 3.21 0 2.568 1.34 3.853 1.336 1.284 3.155 1.284 2.247 0 4.439-1.605 2.196-1.606 2.731-4.281Zm78.802-17.55h-13.912l.214-1.07q.107-.536.107-1.178 0-1.926-.698-3.582-.693-1.662-2.727-1.662-1.82 0-3.638 1.555-1.82 1.549-1.82 4.117 0 1.713.907 2.732.913 1.014 2.41 1.656 1.5.642 3.37 1.07 1.875.428 3.694.856 2.569.642 4.867 1.55 2.303.912 4.123 2.41 1.82 1.498 2.89 3.695 1.07 2.191 1.07 5.402 0 4.495-2.09 7.547-2.084 3.048-5.774 4.923-3.695 1.87-8.674 2.62-4.973.749-10.645.749-8.67 0-14.341-1.285-5.672-1.284-7.92-2.461l2.248-10.702h14.447q-.107.535-.107 1.014v1.02q0 2.46 1.122 3.908 1.126 1.442 3.908 1.442 3.104 0 4.44-1.763 1.34-1.768 1.34-3.267 0-1.498-1.127-2.624-1.121-1.121-2.833-1.921-1.713-.806-3.802-1.392-2.084-.59-4.01-1.126-1.392-.32-3.16-1.07-1.764-.75-3.369-2.14-1.605-1.392-2.675-3.583-1.07-2.197-1.07-5.514 0-4.709 2.303-7.863 2.298-3.16 5.988-5.086 3.695-1.927 8.353-2.783 4.652-.856 9.361-.856 5.886 0 11.13 1.07 5.244 1.07 8.562 2.783l-2.462 10.809Zm44.984-39.384-6.956 32.748h.749q2.033-2.033 4.709-3.745 2.247-1.499 5.35-2.676 3.104-1.177 6.957-1.177 5.565 0 9.204 2.839 3.638 2.833 3.638 7.756 0 1.498-.32 3.374-.322 1.87-.75 3.96-.428 2.084-.907 4.168-.484 2.09-.805 3.802l-4.495 20.868h-21.725l5.886-27.932q.214-1.39.535-2.838.321-1.442.321-2.62 0-1.605-.805-2.619-.8-1.02-2.405-1.02-1.927 0-3.695 1.392-1.763 1.391-2.726 2.461l-7.064 33.176h-21.832l15.197-71.917h21.94Z"/></svg>